/* XPM */
static char *result[] = {
/* columns rows colors chars-per-pixel */
"32 32 5 1 ",
"  c #0F0B0D",
". c #29111F",
"X c #512D2F",
"o c #794840",
"O c #72A954",
/* pixels */
"OO                            OO",
"O oooooooo ooooooooo ooooooooo O",
"O ooXXXXXX XXXXXXXXX XXXXXXXoo O",
"O o..XXXX. .XXXXXXX. .XXXXX..o O",
"O o.                        .o O",
"OO   ......................   OO",
"O o. ..XXXXXXXXXXXXXXXXXX.. .o O",
"O oX .XXXXXXXXXXXXXXXXXXX.. Xo O",
"O oX .XXXXXXXXXXXXXXXXXX.   Xo O",
"O oX .XXXXXXXXXXXXXXXXX.    Xo O",
"O oX .XXXXXXXXXXXXXXXXXX..  Xo O",
"O oX .XXXXXXXXXXXXXXXXXXXX. Xo O",
"O oX .XXXXXXXXXXXXXXXXXXXX. Xo O",
"O o. .XXXXXXXXXXXXXXXXXXXX. .o O",
"OO   .XXXXXXXXXXXXXXXXXXXX.   OO",
"O o. .XXXXXXXXXXXXXXXXXXXX. .o O",
"O oX .XXXXXXXXXXXXXXXXXXXX. Xo O",
"O oX .XXXXXXXXXXXXXXXXXXXX. Xo O",
"O oX .XXXXXXXXXXXXXXXXXXXX. Xo O",
"O oX .XXXXXXXXXXXXXXXXXXXX. Xo O",
"O oX .XXXXXXXXXXXXXXXXX  X. Xo O",
"O oX .XXXXXXXXXXXXXXXX XX . Xo O",
"O o. .XXXXXXXXXXXXXXXX .. . .o O",
"OO   .XXXXXXXXXXXXXXXX.  ..   OO",
"O o. .XXXXXXXXXXXXXXXXX..X. .o O",
"O oX .XXXXXXXXXXXXXXXXXXXX. Xo O",
"O oX .XXXXXXXXXXXXXXXXXXXX. Xo O",
"O oX .XXXXXXXXXXXXXXXXXXXX. Xo O",
"O oX .XXXXXXXXXXXXXXXXXXXX. Xo O",
"O oX .XXXXXXXXXXXXXXXXXXXX. Xo O",
"O oX .XXXXXXXXXXXXXXXXXXXX. Xo O",
"O oX  ..XXXXXXXXXXXXXXXXXX. Xo O"
};
