/* XPM */
static char *result[] = {
/* columns rows colors chars-per-pixel */
"32 32 5 1 ",
"  c #0F0B0D",
". c #29111F",
"X c #512D2F",
"o c #794840",
"O c #72A954",
/* pixels */
"OOOOOOOOOOOOOOOOOOOOOOOOOOOOOOOO",
"OO                            OO",
"O oooooooo ooooooooo ooooooooo O",
"O ooXXXXXX XXXXXXXXX XXXXXXXoo O",
"O o..XXXX. .XXXXXXX. .XXXXX..o O",
"O o.                        .o O",
"OO                            OO",
"O o.                        .o O",
"O oX                        Xo O",
"O oX                        Xo O",
"O oX                        Xo O",
"O oX                        Xo O",
"O oX                        Xo O",
"O oX                        Xo O",
"O o.                        .o O",
"OO                            OO",
"O o.                        .o O",
"O oX                        Xo O",
"O oX                        Xo O",
"O oX                        Xo O",
"O oX                        Xo O",
"O oX                        Xo O",
"O oX                        Xo O",
"O o.                        .o O",
"OO                            OO",
"O o.                        .o O",
"O oX                        Xo O",
"O oX                        Xo O",
"O oX                        Xo O",
"O oX                        Xo O",
"O oX                        Xo O",
"O oX                        Xo O"
};
